<svg id="Capa_1" data-name="Capa 1" xmlns="http://www.w3.org/2000/svg" viewBox="0 0 400 193"><defs><style>.cls-1{fill:#fff;}</style></defs><path class="cls-1" d="M9.35,167.37H9.2a1.1,1.1,0,0,1-.94-1.24c2.65-19,12-34.83,27.71-47.16a49.07,49.07,0,0,1,1.61-23.29l.14-.43,1.65-.85C42.16,93,46,91,46.37,89.8,50,77,55,69.09,61.56,65.74c.55-.32,15-8.7,28.84-10.15a37.17,37.17,0,0,1,3.86-.22c10.4,0,15.84,2.2,18.24,3.6l1.07-6.43a13.74,13.74,0,0,1-4.23-5.94l-.15-.4.16-.4c7.1-17.1,13.06-30.68,19.89-37l1.26-1.16L131,9.28c3.31,10.15,4.57,24.16,3.86,42.84l0,.5-.39.31a13.49,13.49,0,0,1-8.55,3.23l-1.15,6.92c22.25,8.45,29.29,33.19,35,53.12a1.1,1.1,0,0,1-2.12.6c-6.88-24.19-14.22-44.8-34.44-52l-.87-.31,1.78-10.7,1,.1a10.52,10.52,0,0,0,7.6-2.39c.63-17.12-.43-30.19-3.23-39.84-6.48,7-12.54,21.55-17.93,34.55a11.66,11.66,0,0,0,3.87,5l.53.41L114,63.15l-1.51-1.51s-4.4-4.07-18.26-4.07a35.6,35.6,0,0,0-3.63.2c-13.33,1.41-27.88,9.81-28,9.9-6,3-10.71,10.7-14.14,22.78-.69,2.09-4.12,3.85-8.1,5.89l-.83.43a46.91,46.91,0,0,0-1.29,22.47l.11.65-.52.41c-15.59,12-24.81,27.53-27.4,46.13A1.1,1.1,0,0,1,9.35,167.37Z"/><path class="cls-1" d="M76.69,176.16a1.1,1.1,0,0,1-1.08-.9c-3.56-19.59-12.29-34.75-24-41.6-7.69-4.53-16.14-5.27-25.12-2.21a1.1,1.1,0,0,1-.71-2.08c9.48-3.23,18.8-2.4,27,2.4,12.21,7.17,21.32,22.88,25,43.09a1.09,1.09,0,0,1-.88,1.28Z"/><path class="cls-1" d="M90.51,57.78h-.1a1.09,1.09,0,0,1-1-1.19l.75-8.24-2.94-1.48.09-.76c1.65-13.93,5.45-23.89,12-31.34l.95-1.09.8,1.2c2.57,3.9,4,13.56,4.57,31.32l0,.61-4.52,3-1.29,7a1.1,1.1,0,0,1-2.16-.39l1.46-7.93,4.27-2.85c-.51-14.67-1.65-23.95-3.48-28.21-5.47,6.83-8.77,15.84-10.32,28.15L92.5,47l-.9,9.74A1.1,1.1,0,0,1,90.51,57.78Z"/><path class="cls-1" d="M62.05,67.82a1.09,1.09,0,0,1-1-.61c-1.58-3.16-1.58-3.28-1.58-3.58v-35a1.23,1.23,0,0,1,1-1.39c.78-.13,1.22.25,1.91,2l4.47-6,5,16.52L84.87,56a1.1,1.1,0,0,1-1.71,1.38L69.85,40.89,66,28.13,61.69,33.9V63.44c.19.44.81,1.71,1.35,2.79a1.09,1.09,0,0,1-.5,1.47A1,1,0,0,1,62.05,67.82Z"/><path class="cls-1" d="M69.37,103c-5.23,0-6.86-7.87-6.93-8.21l0-.21c0-3.42,1.45-9.88,7-9.88,6.62,0,9.22,9.2,9.33,9.59l.11.42-.2.38C78.18,95.86,74.29,103,69.37,103Zm-4.75-8.53c.19.83,1.61,6.33,4.75,6.33,2.87,0,5.89-4.26,7.08-6.34-.54-1.64-2.79-7.57-7.08-7.57S64.65,93.48,64.62,94.43Z"/><path class="cls-1" d="M123.54,64.89a1.1,1.1,0,0,1-.61-2c4.64-3.09,9.36-4.12,14-3.09a1.1,1.1,0,0,1-.48,2.15c-4.12-.92-8.15,0-12.33,2.77A1.11,1.11,0,0,1,123.54,64.89Z"/><path class="cls-1" d="M113.69,59.6a1.07,1.07,0,0,1-.57-.16c-2-1.24-4.11-2.4-6.18-3.45a1.1,1.1,0,0,1,1-2c2.11,1.08,4.24,2.27,6.32,3.53a1.1,1.1,0,0,1-.57,2Z"/><path class="cls-1" d="M114.51,54.64a1.06,1.06,0,0,1-.65-.22l-.5-.38a10.68,10.68,0,0,0-4.68-2.35,1.09,1.09,0,0,1-.85-1.3,1.1,1.1,0,0,1,1.3-.85,12.8,12.8,0,0,1,5.57,2.76l.47.37a1.09,1.09,0,0,1-.66,2Z"/><path class="cls-1" d="M98.66,114.67h-.15L66.3,110.27a1.11,1.11,0,0,1-.94-1.24,1.09,1.09,0,0,1,1.23-.94l32.21,4.39a1.1,1.1,0,0,1-.14,2.19Z"/><path class="cls-1" d="M98.66,123.54a1,1,0,0,1-.25,0l-38.07-8.87a1.1,1.1,0,1,1,.5-2.14l38.06,8.87a1.1,1.1,0,0,1,.82,1.32A1.09,1.09,0,0,1,98.66,123.54Z"/><path class="cls-1" d="M88.41,132.34a1.15,1.15,0,0,1-.41-.08l-22-8.8a1.1,1.1,0,0,1,.81-2l22,8.8a1.1,1.1,0,0,1,.62,1.43A1.11,1.11,0,0,1,88.41,132.34Z"/><path class="cls-1" d="M36.71,105.88a1.07,1.07,0,0,1-.64-.21,10.41,10.41,0,0,0-3.53-1.28,1.09,1.09,0,0,1-.84-1.3,1.1,1.1,0,0,1,1.31-.84,12,12,0,0,1,4.34,1.64,1.1,1.1,0,0,1,.25,1.53A1.09,1.09,0,0,1,36.71,105.88Z"/><path class="cls-1" d="M29.06,112.47a1.07,1.07,0,0,1-.85-.41,1.09,1.09,0,0,1,.17-1.54,12.71,12.71,0,0,1,8-3.15h.07a1.1,1.1,0,0,1,0,2.2h-.06a10.58,10.58,0,0,0-6.6,2.66A1.09,1.09,0,0,1,29.06,112.47Z"/><path class="cls-1" d="M34.24,116.13a1.12,1.12,0,0,1-.44-.09,1.09,1.09,0,0,1-.57-1.44c.85-1.94,2.05-2.63,3.57-2.06A1.1,1.1,0,0,1,36,114.6c-.19-.07-.34-.13-.78.87A1.08,1.08,0,0,1,34.24,116.13Z"/><ellipse class="cls-1" cx="66.93" cy="93.07" rx="1.95" ry="2.93"/><path class="cls-1" d="M62.86,186l-1.52-1.32c-2.78-2.4-6.4-3.75-11.09-4.13l-2-.17,1.18-1.58c2.95-4,6.65-5.55,11.3-4.82l.49.07.26.42c1.61,2.51,2.16,5.71,1.63,9.52Zm-10.34-7.4a20.68,20.68,0,0,1,8.61,3.16,10.82,10.82,0,0,0-1.21-5.68A8.48,8.48,0,0,0,52.52,178.6Z"/><path class="cls-1" d="M41.35,171.84l-1.24-1.07c-4.55-3.93-8.53-6.06-11.82-6.33l-2-.16,1.79-2.42c2.26-3.1,5.07-6.94,10-6.19l.32.11c3.6,1.8,5,9.83,3.48,14.5Zm-11-9.29c3,.7,6.21,2.48,9.84,5.41.6-4-.81-9-2.63-10.14C34.33,157.41,32.33,159.82,30.33,162.55Z"/><path class="cls-1" d="M22.35,158.57l-1.23-.94c-3.76-2.89-5.1-2.64-7.31-2.22-.43.08-.88.17-1.38.24L9.82,156l1.57-2.12c.44-.59.89-1.22,1.34-1.87,2.28-3.26,4.63-6.63,7.6-6.63a2.07,2.07,0,0,1,1.67,1c1.42,2,2.08,7,.83,10.7ZM15.85,153a9.07,9.07,0,0,1,5.27,2c.59-3.31-.35-6.66-.95-7.3-1.73.17-3.77,3-5.46,5.42A8.74,8.74,0,0,1,15.85,153Z"/><path class="cls-1" d="M46.68,100.76a1.09,1.09,0,0,1-1.07-.88C45.22,98,43.76,96.63,41,95.6a1.1,1.1,0,0,1-.64-1.41,1.08,1.08,0,0,1,1.41-.64c3.47,1.3,5.43,3.22,6,5.89a1.11,1.11,0,0,1-.86,1.3Z"/><circle class="cls-1" cx="40.83" cy="99.66" r="1.46"/><path class="cls-1" d="M50.34,98.56a1.09,1.09,0,0,1-.89-.46,9.41,9.41,0,0,0-5.57-4A1.1,1.1,0,0,1,44.39,92a11.66,11.66,0,0,1,6.85,4.82,1.09,1.09,0,0,1-.9,1.73Z"/><path class="cls-1" d="M46.68,92.32a1.1,1.1,0,0,1-.51-2.07,8.29,8.29,0,0,1,8.67,0,1.1,1.1,0,0,1-1.12,1.89,6.13,6.13,0,0,0-6.53,0A1,1,0,0,1,46.68,92.32Z"/><path class="cls-1" d="M63.52,43.92h-.05a1.1,1.1,0,0,1-1-1.14,75.9,75.9,0,0,0-.5-12.33,1.1,1.1,0,1,1,2.18-.27,80.44,80.44,0,0,1,.52,12.69A1.12,1.12,0,0,1,63.52,43.92Z"/><path class="cls-1" d="M64.25,52.08a2.2,2.2,0,1,1,2.2-2.2A2.2,2.2,0,0,1,64.25,52.08Zm0-2.93a.74.74,0,1,0,.73.73A.73.73,0,0,0,64.25,49.15Z"/><path class="cls-1" d="M91.31,53.07A1.16,1.16,0,0,1,90.8,53,26.43,26.43,0,0,1,84,47.72a1.1,1.1,0,0,1,1.57-1.53A24.37,24.37,0,0,0,91.82,51a1.1,1.1,0,0,1,.46,1.48A1.08,1.08,0,0,1,91.31,53.07Z"/><path class="cls-1" d="M37.17,120.52a1.09,1.09,0,0,1-.93-.51,1.08,1.08,0,0,1,.34-1.51c.32-.21,3.2-2,5.32-.88a1.1,1.1,0,1,1-1,1.95c-.72-.36-2.3.25-3.15.78A1,1,0,0,1,37.17,120.52Z"/><path class="cls-1" d="M153.05,158.79a4.63,4.63,0,0,1,4,2.16l2.42-1.47a7,7,0,0,0-6.47-3.54,6.44,6.44,0,0,0-4.83,1.64,5.37,5.37,0,0,0-2.42,4.57c0,2.59,2,4.49,5.52,6.22l1.73.69c2.59,1.2,4,2.67,4,4.57L155.89,177l-3.36,1.38-3.37-1.12-1.2-3.37-3.11.69a7.08,7.08,0,0,0,2.42,4.83,8.15,8.15,0,0,0,5,1.9,9,9,0,0,0,5.78-2.16l2.16-5.52c0-3.11-1.9-5.52-6-7.16l-1.9-.78c-2.16-.95-3.37-2.16-3.37-3.54a3,3,0,0,1,1.47-2.41l2.68-1"/><polyline class="cls-1" points="170.22 159.22 176 159.22 176 156.37 161.16 156.37 161.16 159.22 167.11 159.22 167.11 180.79 170.22 180.79 170.22 159.22"/><path class="cls-1" d="M195.85,172V156.37h-3.11v14.41c0,5-2,7.6-6,7.6s-5.78-2.59-5.78-7.6V156.37H177.9V172a9.22,9.22,0,0,0,2.42,6.73,8.83,8.83,0,0,0,6.47,2.59,9,9,0,0,0,6.64-2.59,9.62,9.62,0,0,0,2.42-6.73"/><path class="cls-1" d="M205,156.37h-5.26v24.42h5L204,178h-1.2V159.22H204c7.6,0,11.48,3.19,11.48,9.41S211.64,178,204,178l.7,2.84c4,0,7.42-.95,9.75-3.1a11.39,11.39,0,0,0,4.14-9.32,11.27,11.27,0,0,0-4.14-9.15,15.5,15.5,0,0,0-9.5-2.85"/><polyline class="cls-1" points="224.58 156.37 221.47 156.37 221.47 180.79 224.58 180.79 224.58 156.37"/><path class="cls-1" d="M253.06,168.63a11.43,11.43,0,0,0-3.8-8.89,12,12,0,0,0-9.06-3.8,11.16,11.16,0,0,0-8.89,3.8l1.9,1.9a9.65,9.65,0,0,1,7-2.85,9.75,9.75,0,0,1,7.16,2.85,10.56,10.56,0,0,1,2.59,7,9.73,9.73,0,0,1-9.75,9.75,9.07,9.07,0,0,1-6.73-2.85,9.59,9.59,0,0,1-2.85-6.9,10.56,10.56,0,0,1,2.59-7l-1.9-1.9a11.24,11.24,0,0,0-3.88,8.89,11.74,11.74,0,0,0,3.88,9.06,11.94,11.94,0,0,0,8.89,3.62,12.44,12.44,0,0,0,9.06-3.62,12,12,0,0,0,3.8-9.06"/><path class="cls-1" d="M284.21,162.59l2.16-1.9a12.35,12.35,0,0,0-9.84-4.75,12.68,12.68,0,0,0-12.69,12.69,11.71,11.71,0,0,0,3.63,8.8,11.08,11.08,0,0,0,8.63,3.88,11.48,11.48,0,0,0,11.73-11.73v-1H278v2.58h6.47l-2.68,5.35-5.52,2.16a8.45,8.45,0,0,1-6.64-3.19,10.15,10.15,0,0,1-2.94-6.9,9.7,9.7,0,0,1,2.94-7,8.88,8.88,0,0,1,6.9-3.11,9.34,9.34,0,0,1,7.68,4.06"/><polyline class="cls-1" points="290.42 156.37 290.42 180.79 293.53 180.79 293.53 169.06 305.26 169.06 305.26 180.79 308.11 180.79 308.11 156.37 305.26 156.37 305.26 166.21 293.53 166.21 293.53 156.37 290.42 156.37"/><polyline class="cls-1" points="315.53 180.79 315.53 156.37 312.43 156.37 312.43 180.79 315.53 180.79"/><path class="cls-1" d="M323,156.37h-3.1v24.42h5.78l5.95-1.38a6.42,6.42,0,0,0,2.68-5.35L332.79,170a5.73,5.73,0,0,0-3.54-2.16v-.17a4.76,4.76,0,0,0,2.59-4.58c0-4.57-2.85-6.73-8.89-6.73v2.68h.78c3.54,0,5.26,1.38,5.26,4s-1.72,4.06-5.26,4.06H323v2.42h2c4.05,0,6.21,1.38,6.21,4.31s-1.9,4.31-5.78,4.31H323V159.05"/><polyline class="cls-1" points="337.62 180.79 348.15 180.79 348.15 177.94 340.47 177.94 340.47 156.37 337.62 156.37 337.62 180.79"/><polyline class="cls-1" points="352.89 180.79 352.89 156.37 349.79 156.37 349.79 180.79 352.89 180.79"/><path class="cls-1" d="M113,115.9v3.89h17.77a34.31,34.31,0,0,1-8.45,12.85,28.23,28.23,0,0,1-11.22,7.42l2.42,3.2a36.17,36.17,0,0,0,13.63-10.36l10.53,10.53,3.1-3.37-11.47-10a40.59,40.59,0,0,0,6.73-14.16H113"/><path class="cls-1" d="M152.79,121.94h12a22.19,22.19,0,0,1-4.14,9.06l-7.85-5-2.68,2.59,7.94,5.26a30.54,30.54,0,0,1-14.58,7l2.16,3.37c13.63-3.11,21.74-11.74,23.9-25.63H155l1.89-3.63-4.05-1c-2.42,6.22-6.21,10.79-11.48,13.38l2.59,2.93,8.89-8.37"/><path class="cls-1" d="M199,122.12l-3.88-1.64c-2.16,6.47-4.75,11.22-8.28,13.89-3.11,2.59-8.2,4.06-14.59,4.57l1,4.06c7.42-.78,12.86-2.94,17-6.21,3.28-3.11,6.22-7.94,8.8-14.67"/><polyline class="cls-1" points="200.42 117.8 198.78 112.8 195.85 113.31 197.75 118.58 200.42 117.8"/><polyline class="cls-1" points="171.69 123.06 170.22 126.69 179.8 130.49 181.26 126.69 171.69 123.06"/><path class="cls-1" d="M174.53,115.47,172.89,119a61.17,61.17,0,0,1,9.58,3.62l1.64-3.62-9.58-3.54"/><polyline class="cls-1" points="191.1 113.75 192.74 119.27 195.59 118.58 193.95 113.06 191.1 113.75"/><path class="cls-1" d="M237,115.47,235.37,119a41.69,41.69,0,0,1,9.32,3.62l1.9-3.62L237,115.47"/><path class="cls-1" d="M234.16,123.06l-1.64,3.63,9.58,3.8,1.64-3.8c-1.9-1.21-5-2.42-9.58-3.63"/><path class="cls-1" d="M261.26,122.12l-3.63-1.64c-2.16,6.47-5,11.22-8.37,13.89-3.11,2.59-8.11,4.06-14.58,4.57l.95,4.06c7.42-.78,12.94-2.94,16.74-6.21,3.62-3.11,6.47-7.94,8.89-14.67"/><polyline class="cls-1" points="260.05 118.58 262.89 117.8 261.25 112.8 258.32 113.31 260.05 118.58"/><polyline class="cls-1" points="255.22 119.27 258.15 118.58 256.42 113.06 253.58 113.75 255.22 119.27"/><polyline class="cls-1" points="295 116.85 293.53 112.11 290.68 112.8 292.15 117.63 295 116.85"/><path class="cls-1" d="M289,117.37l1.12-.26-1.38-4.74-3.1.69,1.38,4.31H265.31v3.8h21.57c-.77,6.47-3.36,11.47-7.94,14.67l-10.78,3.79,2.16,3.8c13.2-2.85,20.1-11.48,20.79-26.06H289"/><path class="cls-1" d="M319.67,115h-4.14v14.59c0,4.14-1.38,7-4.23,8.63l-11,2.15,1.21,3.89,8.11-1.47,5-2.42c3.37-2.59,5.09-6.64,5.09-12.42V115"/><polyline class="cls-1" points="302.42 115.47 298.53 115.47 298.53 134.11 302.42 134.11 302.42 115.47"/><path class="cls-1" d="M330.46,121.43l3.11-7.94-3.63-.69A28.77,28.77,0,0,1,322.26,127l1.47,3.36,3.11-3.1V144.9h3.62V121.43"/><path class="cls-1" d="M337.88,112.8a25.08,25.08,0,0,1-6.73,12.42l2.16,3.2,5.26-7.43H340V144.9h3.63v-7.42H354.1v-3.37H343.58v-5H354.1v-3.37H343.58V121h11.3v-3.36H340.21l1.47-4.32-3.8-.51"/><polyline class="cls-1" points="361.09 114 361.09 126 384.56 126 384.56 114 381.2 117.11 381.2 122.89 364.63 122.89 364.63 117.11 381.2 117.11 384.56 114 361.09 114"/><polyline class="cls-1" points="368 143.26 368 144.72 371.1 144.72 371.1 128.85 357.99 128.85 357.99 144.9 361.09 144.9 361.09 143.26 368 143.26 368 140.06 361.09 140.06 361.09 131.95 368 131.95 368 140.06"/><polyline class="cls-1" points="384.31 143.26 384.31 144.9 387.67 144.9 387.67 128.85 373.78 128.85 373.78 144.9 377.14 144.9 377.14 143.26 377.14 140.06 377.14 131.95 384.31 131.95 384.31 140.06 377.14 140.06 377.14 143.26 384.31 143.26"/><path class="cls-1" d="M201.89,119.79v3.79h14.58c-2.67,4.84-7.42,9.58-14.41,14.41l2.16,3.28A48.25,48.25,0,0,0,215.78,131l3-4.31v17h3.88V123.58h7.68v-3.79h-7.94v-5.53H218.8v5.53H201.89"/><polyline class="cls-1" points="390 149.9 390 149.47 109.9 149.47 109.9 149.9 390 149.9"/></svg>